<svg xmlns="http://www.w3.org/2000/svg" viewBox="0 0 800 450" enable-background="new 0 0 800 450"><path fill="#8A0000" d="M0 0h800v450h-800v-450z"/><ellipse fill="#8B0000" stroke="#8B0000" stroke-width="26" stroke-miterlimit="10" cx="380.7" cy="271.2" rx="17.7" ry="25.2"/><path fill="#8B0000" stroke="#8B0000" stroke-width="29" stroke-miterlimit="10" d="M399 223.6l-33.2-2.2 2.2-33.2 33.2 2.2-2.2 33.2zm-1.2 17.9l-33.2-2.2-2.2 33.2 33.2 2.2 2.2-33.2zm-38.9 82l33.2 2.2 2.2-33.2-33.2-2.2-2.2 33.2zm-20.8-86.1l-33.2-2.2-2.2 33.2 33.2 2.2 2.2-33.2zm-38.8 82l33.2 2.2 2.2-33.2-33.2-2.2-2.2 33.2zm37.7-207.5c13.1.9 24.4-8.9 25.2-22.1l1.4-22.1c.9-13-8.9-24.4-22.1-25.2-13-.9-24.4 8.9-25.2 22.1l-1.4 22.1c-.8 13 9.1 24.4 22.1 25.2zm161.6 11.1c13.1.9 24.4-8.9 25.2-22.1l1.4-22.1c.9-13-8.9-24.4-22.1-25.2-13-.9-24.4 8.9-25.4 22.1l-1.4 22.1c-.6 12.9 9.3 24.2 22.3 25.2zm89.8 193.5c-3.3 48.9-45.7 85.9-94.5 82.7s-85.8-45.7-82.4-94.6c3.3-48.9 45.7-85.9 94.5-82.7 48.7 3.3 85.6 45.7 82.4 94.6zm-22.1-1.6c2.5-36.8-25.2-68.6-61.9-71.1s-68.5 25.4-71 62.2c-2.5 36.7 25.2 68.6 61.9 71.1s68.5-25.4 71-62.2zm-13-24.8c-1.6-3.8-5.9-5.5-9.7-3.9l-40.2 17c-1.1-.5-2.2-.9-3.5-1.1-6.3-.9-12.1 3.4-13 9.7s3.4 12.1 9.6 13c5.7.8 10.9-2.6 12.6-7.9l40.2-17c3.8-1.6 5.5-6 4-9.8zm-46.6-81.3c4.5.3 8.7.9 12.9 1.8l.8-12.1-33.2-2.2-.9 13.1c6.8-.8 13.6-1 20.4-.6zm-64.3 17.7c5.4-3.7 11-6.8 17.1-9.5l1.6-22.6-33.2-2.2-2.2 33.2 16.7 1.1zm-31.2 133.9c-1.8-3.3-3.5-6.8-5-10.2l-139.4-9.5 12.4-182 270.4 18.4-2.9 43c3.9 2 7.6 4.3 11.2 6.8l2 1.3c3.5 2.6 7 5.4 10.1 8.4l9.3-136.7-42.4-2.9-.3 4.6c-1.3 20-18.7 35.1-38.6 33.8-20-1.3-35.1-18.7-33.8-38.6l.3-4.6-89.2-6-.3 4.6c-1.3 20-18.7 35.1-38.6 33.8-20-1.3-35.1-18.7-33.8-38.6l.3-4.6-42.4-2.9-19.2 279.5 176.1 12c-2.2-3.2-4.3-6.3-6.2-9.6z"/><path fill="#A03333" d="M399 223.6l-33.2-2.2 2.2-33.2 33.2 2.2-2.2 33.2zm-1.2 17.9l-33.2-2.2-2.2 33.2 33.2 2.2 2.2-33.2zm-38.9 82l33.2 2.2 2.2-33.2-33.2-2.2-2.2 33.2zm-20.8-86.1l-33.2-2.2-2.2 33.2 33.2 2.2 2.2-33.2zm-38.8 82l33.2 2.2 2.2-33.2-33.2-2.2-2.2 33.2zm37.7-207.5c13.1.9 24.4-8.9 25.2-22.1l1.4-22.1c.9-13-8.9-24.4-22.1-25.2-13-.9-24.4 8.9-25.2 22.1l-1.4 22.1c-.8 13 9.1 24.4 22.1 25.2zm161.6 11.1c13.1.9 24.4-8.9 25.2-22.1l1.4-22.1c.9-13-8.9-24.4-22.1-25.2-13-.9-24.4 8.9-25.4 22.1l-1.4 22.1c-.6 12.9 9.3 24.2 22.3 25.2zm89.8 193.5c-3.3 48.9-45.7 85.9-94.5 82.7s-85.8-45.7-82.4-94.6c3.3-48.9 45.7-85.9 94.5-82.7 48.7 3.3 85.6 45.7 82.4 94.6zm-22.1-1.6c2.5-36.8-25.2-68.6-61.9-71.1s-68.5 25.4-71 62.2c-2.5 36.7 25.2 68.6 61.9 71.1s68.5-25.4 71-62.2zm-13-24.8c-1.6-3.8-5.9-5.5-9.7-3.9l-40.2 17c-1.1-.5-2.2-.9-3.5-1.1-6.3-.9-12.1 3.4-13 9.7s3.4 12.1 9.6 13c5.7.8 10.9-2.6 12.6-7.9l40.2-17c3.8-1.6 5.5-6 4-9.8zm-46.6-81.3c4.5.3 8.7.9 12.9 1.8l.8-12.1-33.2-2.2-.9 13.1c6.8-.8 13.6-1 20.4-.6zm-64.3 17.7c5.4-3.7 11-6.8 17.1-9.5l1.6-22.6-33.2-2.2-2.2 33.2 16.7 1.1zm-31.2 133.9c-1.8-3.3-3.5-6.8-5-10.2l-139.4-9.5 12.4-182 270.4 18.4-2.9 43c3.9 2 7.6 4.3 11.2 6.8l2 1.3c3.5 2.6 7 5.4 10.1 8.4l9.3-136.7-42.4-2.9-.3 4.6c-1.3 20-18.7 35.1-38.6 33.8-20-1.3-35.1-18.7-33.8-38.6l.3-4.6-89.2-6-.3 4.6c-1.3 20-18.7 35.1-38.6 33.8-20-1.3-35.1-18.7-33.8-38.6l.3-4.6-42.4-2.9-19.2 279.5 176.1 12c-2.2-3.2-4.3-6.3-6.2-9.6z"/></svg>