<svg xmlns="http://www.w3.org/2000/svg" viewBox="0 0 40 40" enable-background="new 0 0 40 40"><style type="text/css">.st0{fill:#FFFFFF;}</style><path class="st0" d="M1.5 1.5h8.4v-1.5h-9.9v10.3h1.5v-8.8zm0 28.2h-1.5v10.3h9.9v-1.5h-8.4v-8.8zm28.5-29.7v1.5h8.4v8.7h1.6v-10.2h-10zm8.5 38.5h-8.5v1.5h10v-10.3h-1.5v8.8zm-23-38.5h9v1.5h-9v-1.5m0 38.5h9v1.5h-9v-1.5m-15.5-23.3h1.5v9.4h-1.5v-9.4m38.5 0h1.5v9.4h-1.5v-9.4m-7.9-7.1l-10.6 10.9-10.6-10.9-1 1.1 10.6 10.9-10.6 10.9 1 1.1 10.6-10.9 10.6 10.9 1-1.1-10.6-10.9 10.6-10.9-1-1.1z"/></svg>