<svg xmlns="http://www.w3.org/2000/svg" viewBox="0 0 64 64" enable-background="new 0 0 64 64"><style type="text/css">.st0{fill:#FFFFFF;}</style><path class="st0" d="M63.7 30.5c-.6-17.1-14.5-30.5-31.6-30.5h-1.1c-17.4.6-31 15.2-30.4 32.6.6 17.1 14.4 30.5 31.5 30.5h1.1c8.4-.3 16.2-3.8 22-10s8.8-14.2 8.5-22.6zm-10.3 21c-5.3 5.6-12.5 8.9-20.3 9.2h-1c-15.8 0-28.5-12.4-29.1-28.2-.5-16 12.1-29.5 28.1-30.1h1c15.8 0 28.5 12.4 29.1 28.2.3 7.7-2.5 15.2-7.8 20.9zm-15.8-32.3l11.1 11.1h-36.1v2.4h36.1l-11.1 11.2 1.7 1.7 14.1-14.1-14.1-14-1.7 1.7z"/></svg>