<svg xmlns="http://www.w3.org/2000/svg" viewBox="0 0 50 50"><title>icons-</title><path d="M25 3.4a20.83 20.83 0 0 1 15.3 6.3 20.78 20.78 0 0 1 6.3 15.3 20.93 20.93 0 0 1-6.3 15.3 20.71 20.71 0 0 1-15.3 6.3 20.85 20.85 0 0 1-15.3-6.35 20.85 20.85 0 0 1-6.3-15.25 20.71 20.71 0 0 1 6.34-15.3 20.87 20.87 0 0 1 15.26-6.3zm-7.47 14.67q2.34 0 2.34-2.16t-2.34-2.16a2.35 2.35 0 0 0-1.67.63 2 2 0 0 0-.67 1.53q0 2.16 2.34 2.16zm2.16 15.84v-14h-4.32v14h4.32zm16 0v-8.28a6.65 6.65 0 0 0-1.39-4.54 4.64 4.64 0 0 0-3.65-1.58 4.66 4.66 0 0 0-4.32 2.25h-.07l-.26-1.89h-3.79q.09 1.26.09 4.5v9.54h4.41v-8.1a2.17 2.17 0 0 1 .18-1.08 2.19 2.19 0 0 1 2.25-1.73q2.16 0 2.16 3.06v7.83h4.41z"/></svg>