<svg xmlns="http://www.w3.org/2000/svg" viewBox="0 0 50 50"><title>icons-</title><path d="M25 3.4a20.83 20.83 0 0 1 15.3 6.3 20.78 20.78 0 0 1 6.3 15.3 20.93 20.93 0 0 1-6.3 15.3 20.76 20.76 0 0 1-15.3 6.3 20.75 20.75 0 0 1-15.3-6.35 20.92 20.92 0 0 1-6.3-15.25 20.78 20.78 0 0 1 6.3-15.3 20.83 20.83 0 0 1 15.3-6.3zm1.44 26.6a5.75 5.75 0 0 0 5.76-2.88 10.53 10.53 0 0 0 1.53-7.29 6.56 6.56 0 0 0-3.33-5 10.12 10.12 0 0 0-6.57-1.26 9.14 9.14 0 0 0-5.26 2.52 7.31 7.31 0 0 0-2.38 5.31q-.19 4.6 3.14 5.31a3.75 3.75 0 0 0 .41-1.49 3 3 0 0 0-.45-1.08 3.59 3.59 0 0 1-.5-1.21q-.63-4.32 3.51-6.48t7.11.81q2.16 2.16.9 6.66t-4.41 3.87q-1.8-.36-1.49-2.43a16 16 0 0 1 1.08-3.87 1.88 1.88 0 0 0-.94-2.7q-1.89-.81-2.93 1.49a4 4 0 0 0 0 4q-.18.9-.94 3.73a21.66 21.66 0 0 0-.81 3.92v4.41q2.34-1.71 3.51-7.74a8.29 8.29 0 0 0 3.06 1.4z"/></svg>