<svg xmlns="http://www.w3.org/2000/svg" style="display: none;">
		
		<!-- Facebook Circled -->
		<symbol id="facebook-circled" viewBox="0 0 50 50">		
		  <title>icon-facebook-circled</title>
      <desc>Like Us On Facebook</desc>
      <path d="M25,3.4A20.83,20.83,0,0,1,40.3,9.7,20.83,20.83,0,0,1,46.6,25a21,21,0,0,1-6.3,15.3A20.83,20.83,0,0,1,25,46.6,20.83,20.83,0,0,1,9.7,40.3,20.77,20.77,0,0,1,3.4,25.1,20.9,20.9,0,0,1,9.7,9.7,20.83,20.83,0,0,1,25,3.4Zm5.1,14.8V14.7H26.9a4.13,4.13,0,0,0-3.3,1.5,5.43,5.43,0,0,0-1.4,3.6v2H18.8v3.3h3.4v10h3.9v-10h4V21.8H26V19.5c0-.8.3-1.3,0.8-1.3h3.3Z"/>
		</symbol>
		
		<!-- Twitter Circled -->
		<symbol id="twitter-circled" viewBox="0 0 50 50">		
		  <title>icon-twitter-circled</title>
		  <desc>Follow Us On Twitter</desc>
		  <path d="M25,3.4A20.83,20.83,0,0,1,40.3,9.7,20.83,20.83,0,0,1,46.6,25a21,21,0,0,1-6.3,15.3A20.83,20.83,0,0,1,25,46.6,20.83,20.83,0,0,1,9.7,40.3,20.83,20.83,0,0,1,3.4,25,20.83,20.83,0,0,1,9.7,9.7,21,21,0,0,1,25,3.4ZM33.8,21a8.83,8.83,0,0,0,2.1-2.2,10.55,10.55,0,0,1-2.4.6,4.27,4.27,0,0,0,1.9-2.3,8.8,8.8,0,0,1-2.7,1,4.39,4.39,0,0,0-3.1-1.3,4,4,0,0,0-3.1,1.3,4.23,4.23,0,0,0-1.2,3v1a11.38,11.38,0,0,1-8.7-4.5,4.28,4.28,0,0,0-.6,2.2,4,4,0,0,0,2,3.5,4.55,4.55,0,0,1-2-.5v0.1a3.94,3.94,0,0,0,1,2.7,4.07,4.07,0,0,0,2.5,1.5,4.25,4.25,0,0,1-1.1.2,2.2,2.2,0,0,1-.8-0.1,3.8,3.8,0,0,0,4,3A8.49,8.49,0,0,1,16.3,32h-1a12.33,12.33,0,0,0,6.5,1.9,11.38,11.38,0,0,0,8.8-3.8,12.5,12.5,0,0,0,3.3-8.4V21H33.8Z"/>
		</symbol>
		
    <!-- END / SVG symbols -->
		</svg>