<svg xmlns="http://www.w3.org/2000/svg" viewBox="0 0 50 50"><title>icons-</title><path d="M25 17.14a7.55 7.55 0 0 1 5.09 1.86h15.6a18 18 0 0 0-5.39-9.07 20.94 20.94 0 0 0-15.3-6.41 21 21 0 0 0-15.26 6.48 17.83 17.83 0 0 0-5.42 9h15.6a7.55 7.55 0 0 1 5.08-1.86zm8-5.25a.89.89 0 0 1 .89-.89h4.21a.89.89 0 0 1 .89.89v4.21a.89.89 0 0 1-.89.89h-4.21a.89.89 0 0 1-.89-.88v-4.22zm13.6 13.22a20.62 20.62 0 0 1-6.3 15.16 20.73 20.73 0 0 1-15.3 6.37 20.82 20.82 0 0 1-15.3-6.31 21.14 21.14 0 0 1-6.05-18.33h14.06a7.79 7.79 0 0 0-.57 3 7.88 7.88 0 0 0 7.86 7.86 7.54 7.54 0 0 0 5.55-2.31 7.62 7.62 0 0 0 2.31-5.55 7.83 7.83 0 0 0-.56-3h14.05a20.79 20.79 0 0 1 .25 3.11zm-21.6-3.41a3.3 3.3 0 0 1 2.34 5.63 3.3 3.3 0 1 1-2.34-5.63z"/></svg>