<svg xmlns="http://www.w3.org/2000/svg" viewBox="0 0 50 50"><title>icons-</title><path d="M25 3.4a20.83 20.83 0 0 1 15.3 6.3 20.78 20.78 0 0 1 6.3 15.3 20.93 20.93 0 0 1-6.3 15.3 20.71 20.71 0 0 1-15.3 6.3 20.85 20.85 0 0 1-15.3-6.34 20.85 20.85 0 0 1-6.3-15.26 20.71 20.71 0 0 1 6.34-15.3 20.87 20.87 0 0 1 15.26-6.3zm9.9 17.37q.63-3.69-2.16-4.23a4.94 4.94 0 0 0-5 1.8 5.27 5.27 0 0 0-1.53 3q1.71-1.08 2.52 0a2.57 2.57 0 0 1-.09 2.83q-1.93 3.83-2.83 3.83-.63 0-1.62-4.23a15.56 15.56 0 0 1-.36-1.8q-.18-1.17-.36-2a10.75 10.75 0 0 0-.54-1.75 3 3 0 0 0-.9-1.3 1.58 1.58 0 0 0-1.35-.23 7.45 7.45 0 0 0-2.68 1.38 19.41 19.41 0 0 0-2.52 2.25l-.9 1.08.81 1.08a3 3 0 0 1 .45-.36 5.39 5.39 0 0 1 1-.45.73.73 0 0 1 .95.09q.22.36 1.62 5.08t1.76 5.45a4.67 4.67 0 0 0 1.71 1.93 2.61 2.61 0 0 0 2.61 0 28.35 28.35 0 0 0 5.51-5.44 16.89 16.89 0 0 0 3.9-8.01z"/></svg>