<svg baseProfile="basic" xmlns="http://www.w3.org/2000/svg" width="32" height="32" viewBox="0 0 32 32"><path d="M0 0v32h32v-32h-32zm19.712 23.616c-1.664 1.568-2.848 2.56-3.648 3.008-.832.48-1.536.704-2.112.704-.576 0-1.024-.192-1.376-.544-.352-.384-.512-.864-.512-1.472 0-1.568.864-5.152 2.688-11.04.032-.128.064-.224.064-.32l-.256.128c-.16.096-.608.448-1.92 1.76-.128.096-.256.16-.384.16s-.256-.032-.352-.128l-.768-.608c-.128-.096-.224-.224-.224-.384 0-.128.032-.288.128-.416 1.248-1.344 2.368-2.304 3.392-2.88 1.088-.608 1.984-.896 2.784-.896.512 0 .896.128 1.216.352.32.288.512.672.512 1.12 0 .288-.16 1.056-1.184 4.544-1.504 5.024-1.856 6.816-1.856 7.424.288-.192.928-.64 2.368-1.984.128-.096.256-.16.384-.16s.288.064.384.16l.704.672c.096.096.16.256.16.416 0 .128-.064.288-.192.384zm.672-15.392c-.48.512-1.024.768-1.632.768-.512 0-.96-.192-1.28-.544-.352-.352-.512-.8-.512-1.344 0-.672.224-1.248.64-1.728.448-.512 1.024-.736 1.632-.736.512 0 .96.16 1.312.512.352.352.512.8.512 1.312 0 .672-.224 1.248-.672 1.76z" fill="#fff"/></svg>