<?xml version="1.0" encoding="utf-8"?>
<!-- Generator: Adobe Illustrator 18.1.1, SVG Export Plug-In . SVG Version: 6.00 Build 0)  -->
<svg version="1.1" id="Layer_1" xmlns="http://www.w3.org/2000/svg" xmlns:xlink="http://www.w3.org/1999/xlink" x="0px" y="0px"
	 viewBox="0 0 100 100" enable-background="new 0 0 100 100" xml:space="preserve">
<path fill="#FFFFFF" d="M55.3,28.2c-0.9-0.9-2.4-0.9-3.3,0c-0.9,0.9-0.9,2.4,0,3.3l16.1,16.1H27.7c-1.3,0-2.4,1.1-2.4,2.3
	s1.1,2.4,2.4,2.4h39.8L52,67.9c-0.9,0.9-0.9,2.4,0,3.3c0.5,0.5,1.1,0.7,1.7,0.7s1.2-0.2,1.7-0.7l19.9-19.9c0.9-0.9,0.9-2.4,0-3.3
	C75.3,48,55.3,28.2,55.3,28.2z"/>
<path fill="#FFFFFF" d="M50,0.7C23.2,0.7,0.7,23.2,0.7,50S23.2,99.3,50,99.3S99.3,76.8,99.3,50S76.8,0.7,50,0.7z M50,94.7
	C25.8,94.7,5.3,74.2,5.3,50S25.8,5.3,50,5.3S94.7,25.8,94.7,50S74.2,94.7,50,94.7z"/>
</svg>
