<svg baseProfile="basic" xmlns="http://www.w3.org/2000/svg" width="32" height="32" viewBox="0 0 32 32"><path d="M32 27.872l-8.192-8.16c1.536-2.112 2.336-4.608 2.336-7.264 0-3.328-1.28-6.464-3.648-8.8-2.368-2.368-5.472-3.648-8.832-3.648-3.328 0-6.464 1.28-8.8 3.648-4.864 4.864-4.864 12.768 0 17.632 2.336 2.368 5.472 3.648 8.8 3.648 2.656 0 5.152-.8 7.264-2.304l8.16 8.16 2.912-2.912zm-24.256-9.472c-3.264-3.264-3.264-8.608 0-11.872 1.568-1.568 3.68-2.464 5.92-2.464 2.24 0 4.352.896 5.952 2.464 1.568 1.6 2.432 3.68 2.432 5.92 0 2.24-.864 4.352-2.432 5.952-1.6 1.568-3.712 2.432-5.952 2.432-2.24 0-4.32-.864-5.92-2.432z" fill="#444"/></svg>